
<svg width="14px" height="12px" viewBox="0 0 14 12" version="1.1" xmlns="http://www.w3.org/2000/svg" xmlns:xlink="http://www.w3.org/1999/xlink">
    <!-- Generator: Sketch 62 (91390) - https://sketch.com -->
    <title>White Arrow</title>
    <desc>Created with Sketch.</desc>
    <g id="TemplateA" stroke="none" stroke-width="1" fill="none" fill-rule="evenodd">
        <g id="Template-A-Services" transform="translate(-324.000000, -1697.000000)" fill="#FFFFFF" fill-rule="nonzero">
            <path d="M337.416667,1702.40008 L325.779458,1702.40008 L330.235542,1698.03453 C330.468875,1697.80594 330.477917,1697.42614 330.255667,1697.18614 C330.033708,1696.94645 329.664458,1696.93685 329.430833,1697.16544 L324.341833,1702.15138 C324.121625,1702.37818 324,1702.67938 324,1703.00007 C324,1703.32047 324.121625,1703.62197 324.352042,1703.85866 L329.431125,1708.8344 C329.544,1708.9451 329.688667,1709 329.833333,1709 C329.987333,1709 330.141333,1708.9376 330.255958,1708.8137 C330.478208,1708.57371 330.469167,1708.19421 330.235833,1707.96561 L325.761083,1703.60007 L337.416667,1703.60007 C337.738667,1703.60007 338,1703.33127 338,1703.00007 C338,1702.66888 337.738667,1702.40008 337.416667,1702.40008 L337.416667,1702.40008 Z" id="BlueArrow" transform="translate(331.000000, 1703.000000) scale(-1, 1) translate(-331.000000, -1703.000000) "></path>
        </g>
    </g>
</svg>