<?xml version="1.0" encoding="UTF-8"?>
<svg width="29px" height="29px" viewBox="0 0 29 29" version="1.1" xmlns="http://www.w3.org/2000/svg" xmlns:xlink="http://www.w3.org/1999/xlink">
    <!-- Generator: Sketch 61.2 (89653) - https://sketch.com -->
    <title>002-question</title>
    <desc>Created with Sketch.</desc>
    <g id="Homepage" stroke="none" stroke-width="1" fill="none" fill-rule="evenodd">
        <g id="Launchpad-1-" transform="translate(-866.000000, -568.000000)" fill="#A81202" fill-rule="nonzero" stroke="#A81202" stroke-width="0.5">
            <g id="002-question" transform="translate(867.000000, 569.000000)">
                <path d="M27.3141134,24.896417 L25.4315855,19.4037087 C26.3370456,17.5687072 26.8159122,15.5233791 26.8191257,13.465325 C26.8245887,9.92129241 25.4568651,6.57018893 22.9677872,4.02951671 C20.4783344,1.48836123 17.1609742,0.0580115249 13.6269163,0.00179198365 C11.7753452,-0.0280092058 9.97867166,0.314033275 8.28408058,1.01728765 C6.64963571,1.69562716 5.18390013,2.67820728 3.92763185,3.93769683 C2.67131002,5.19718638 1.69124295,6.66668034 1.01469192,8.3053162 C0.313236193,10.0042525 -0.0275565696,11.8064458 0.00173993224,13.6618518 C0.0577085692,17.2049716 1.48445356,20.530838 4.01910978,23.0267279 C6.54835658,25.5173019 9.88226635,26.8881029 13.4096294,26.8880492 C13.4165385,26.8880492 13.4238224,26.8880492 13.4307315,26.8880492 C15.4835218,26.8848275 17.5236188,26.404733 19.3539807,25.4969512 L24.8326408,27.3843062 C25.0433399,27.4569029 25.2592878,27.4922885 25.4728791,27.4922885 C25.9802924,27.4922885 26.4738876,27.2924326 26.8481544,26.9170987 C27.3799368,26.3839527 27.5585544,25.6096588 27.3141134,24.896417 Z M25.6985211,25.7645713 C25.6445877,25.818643 25.5291156,25.9006902 25.3608883,25.8428061 L19.5554678,23.8428509 C19.4696135,23.8133182 19.3803315,23.7986056 19.2913173,23.7986056 C19.1600989,23.7986056 19.0294697,23.8304472 18.911159,23.8932176 C17.2333317,24.7831187 15.3373607,25.2551052 13.4281607,25.2580047 C7.0252415,25.268368 1.7287339,20.0543412 1.62729409,13.6360241 C1.57625284,10.4068102 2.80145718,7.37186777 5.07721158,5.09027796 C7.35296599,2.80874186 10.3792357,1.58061068 13.6011011,1.63167542 C20.0029491,1.73342903 25.2032121,7.04088663 25.1932502,13.4628013 C25.1902509,15.3769505 24.7195252,17.2777831 23.8319537,18.9598052 C23.7268719,19.1589094 23.7087156,19.3927548 23.7817158,19.6057662 L25.7765559,25.4260727 C25.8343455,25.5946239 25.7525081,25.7105532 25.6985211,25.7645713 Z" id="Shape"></path>
                <path d="M13.2775542,19.4780775 C12.8523532,19.4780775 12.4449872,19.8529281 12.4646432,20.2930729 C12.4843527,20.7346137 12.8218249,21.1080683 13.2775542,21.1080683 C13.7027551,21.1080683 14.1101211,20.7332176 14.0904651,20.2930729 C14.0707556,19.8514783 13.7332835,19.4780775 13.2775542,19.4780775 Z" id="Path"></path>
                <path d="M13.2775542,6.8555823 C11.0474316,6.8555823 9.23308372,8.67458247 9.23308372,10.9104234 C9.23308372,11.3605019 9.59706731,11.7254188 10.0459947,11.7254188 C10.4949221,11.7254188 10.8589057,11.3605019 10.8589057,10.9104234 C10.8589057,9.57339708 11.9439474,8.48557312 13.2775542,8.48557312 C14.6111609,8.48557312 15.6962027,9.57339708 15.6962027,10.9104234 C15.6962027,12.2474498 14.6111609,13.3352737 13.2775542,13.3352737 C12.8286268,13.3352737 12.4646432,13.7001906 12.4646432,14.1502691 L12.4646432,17.4743099 C12.4646432,17.9243884 12.8286268,18.2893053 13.2775542,18.2893053 C13.7264815,18.2893053 14.0904651,17.9244421 14.0904651,17.4742562 L14.0904651,14.8829488 C15.9322885,14.5046617 17.3220246,12.8672071 17.3220246,10.9104234 C17.3220246,8.67458247 15.5076767,6.8555823 13.2775542,6.8555823 Z" id="Path"></path>
            </g>
        </g>
    </g>
</svg>