<?xml version="1.0" encoding="UTF-8"?>
<svg width="29px" height="29px" viewBox="0 0 29 29" version="1.1" xmlns="http://www.w3.org/2000/svg" xmlns:xlink="http://www.w3.org/1999/xlink">
    <!-- Generator: Sketch 61.2 (89653) - https://sketch.com -->
    <title>001-calendar</title>
    <desc>Created with Sketch.</desc>
    <g id="Homepage" stroke="none" stroke-width="1" fill="none" fill-rule="evenodd">
        <g id="Launchpad-1-" transform="translate(-627.000000, -569.000000)" fill="#A81202" fill-rule="nonzero" stroke="#A81202" stroke-width="0.5">
            <g id="001-calendar" transform="translate(628.000000, 570.000000)">
                <path d="M22.95,2.7 L21.6,2.7 L21.6,0.675 C21.6,0.301957031 21.298043,0 20.925,0 C20.551957,0 20.25,0.301957031 20.25,0.675 L20.25,2.7 L6.75,2.7 L6.75,0.675 C6.75,0.301957031 6.44804297,0 6.075,0 C5.70195703,0 5.4,0.301957031 5.4,0.675 L5.4,2.7 L4.05,2.7 C1.81664648,2.7 0,4.51664648 0,6.75 L0,22.95 C0,25.1833535 1.81664648,27 4.05,27 L22.95,27 C25.1833535,27 27,25.1833535 27,22.95 L27,6.75 C27,4.51664648 25.1833535,2.7 22.95,2.7 Z M25.65,22.95 C25.65,24.4412754 24.4412754,25.65 22.95,25.65 L4.05,25.65 C2.55872461,25.65 1.35,24.4412754 1.35,22.95 L1.35,10.8 L25.65,10.8 L25.65,22.95 Z M25.65,9.45 L1.35,9.45 L1.35,6.75 C1.35,5.25872461 2.55872461,4.05 4.05,4.05 L5.4,4.05 L5.4,6.075 C5.4,6.44804297 5.70195703,6.75 6.075,6.75 C6.44804297,6.75 6.75,6.44804297 6.75,6.075 L6.75,4.05 L20.25,4.05 L20.25,6.075 C20.25,6.44804297 20.551957,6.75 20.925,6.75 C21.298043,6.75 21.6,6.44804297 21.6,6.075 L21.6,4.05 L22.95,4.05 C24.4412754,4.05 25.65,5.25872461 25.65,6.75 L25.65,9.45 Z" id="Shape"></path>
                <path d="M6.075,12.825 C4.95676758,12.825 4.05,13.7317676 4.05,14.85 C4.05,15.9682324 4.95676758,16.875 6.075,16.875 C7.19323242,16.875 8.1,15.9682324 8.1,14.85 C8.1,13.7317676 7.19323242,12.825 6.075,12.825 Z M6.075,15.525 C5.70285352,15.525 5.4,15.2221465 5.4,14.85 C5.4,14.4778535 5.70285352,14.175 6.075,14.175 C6.44714648,14.175 6.75,14.4778535 6.75,14.85 C6.75,15.2221465 6.44714648,15.525 6.075,15.525 Z" id="Shape"></path>
                <path d="M13.5,12.825 C12.3817676,12.825 11.475,13.7317676 11.475,14.85 C11.475,15.9682324 12.3817676,16.875 13.5,16.875 C14.6182324,16.875 15.525,15.9682324 15.525,14.85 C15.525,13.7317676 14.6182324,12.825 13.5,12.825 Z M13.5,15.525 C13.1278535,15.525 12.825,15.2221465 12.825,14.85 C12.825,14.4778535 13.1278535,14.175 13.5,14.175 C13.8721465,14.175 14.175,14.4778535 14.175,14.85 C14.175,15.2221465 13.8721465,15.525 13.5,15.525 Z" id="Shape"></path>
                <path d="M20.925,12.825 C19.8067676,12.825 18.9,13.7317676 18.9,14.85 C18.9,15.9682324 19.8067676,16.875 20.925,16.875 C22.0432324,16.875 22.95,15.9682324 22.95,14.85 C22.95,13.7317676 22.0432324,12.825 20.925,12.825 Z M20.925,15.525 C20.5528535,15.525 20.25,15.2221465 20.25,14.85 C20.25,14.4778535 20.5528535,14.175 20.925,14.175 C21.2971465,14.175 21.6,14.4778535 21.6,14.85 C21.6,15.2221465 21.2971465,15.525 20.925,15.525 Z" id="Shape"></path>
                <path d="M6.075,19.575 C4.95676758,19.575 4.05,20.4817676 4.05,21.6 C4.05,22.7182324 4.95676758,23.625 6.075,23.625 C7.19323242,23.625 8.1,22.7182324 8.1,21.6 C8.1,20.4817676 7.19323242,19.575 6.075,19.575 Z M6.075,22.275 C5.70285352,22.275 5.4,21.9721465 5.4,21.6 C5.4,21.2278535 5.70285352,20.925 6.075,20.925 C6.44714648,20.925 6.75,21.2278535 6.75,21.6 C6.75,21.9721465 6.44714648,22.275 6.075,22.275 Z" id="Shape"></path>
                <path d="M13.5,19.575 C12.3817676,19.575 11.475,20.4817676 11.475,21.6 C11.475,22.7182324 12.3817676,23.625 13.5,23.625 C14.6182324,23.625 15.525,22.7182324 15.525,21.6 C15.525,20.4817676 14.6182324,19.575 13.5,19.575 Z M13.5,22.275 C13.1278535,22.275 12.825,21.9721465 12.825,21.6 C12.825,21.2278535 13.1278535,20.925 13.5,20.925 C13.8721465,20.925 14.175,21.2278535 14.175,21.6 C14.175,21.9721465 13.8721465,22.275 13.5,22.275 Z" id="Shape"></path>
                <path d="M20.925,19.575 C19.8067676,19.575 18.9,20.4817676 18.9,21.6 C18.9,22.7182324 19.8067676,23.625 20.925,23.625 C22.0432324,23.625 22.95,22.7182324 22.95,21.6 C22.95,20.4817676 22.0432324,19.575 20.925,19.575 Z M20.925,22.275 C20.5528535,22.275 20.25,21.9721465 20.25,21.6 C20.25,21.2278535 20.5528535,20.925 20.925,20.925 C21.2971465,20.925 21.6,21.2278535 21.6,21.6 C21.6,21.9721465 21.2971465,22.275 20.925,22.275 Z" id="Shape"></path>
            </g>
        </g>
    </g>
</svg>