<?xml version="1.0" encoding="UTF-8"?>
<svg width="25px" height="29px" viewBox="0 0 25 29" version="1.1" xmlns="http://www.w3.org/2000/svg" xmlns:xlink="http://www.w3.org/1999/xlink">
    <!-- Generator: Sketch 61.2 (89653) - https://sketch.com -->
    <title>004-location</title>
    <desc>Created with Sketch.</desc>
    <g id="Homepage" stroke="none" stroke-width="1" fill="none" fill-rule="evenodd">
        <g id="Launchpad-1-" transform="translate(-148.000000, -569.000000)" fill="#A81202" fill-rule="nonzero" stroke="#A81202" stroke-width="0.5">
            <g id="004-location" transform="translate(149.000000, 570.000000)">
                <path d="M19.9738419,20.4806074 C18.7006581,20.0462344 17.0417698,19.7176992 15.2007,19.5294902 C15.4832791,19.1065605 15.7725977,18.6626426 16.0627186,18.2029043 C18.691886,14.0362031 20.0250302,10.7396719 20.0250302,8.40485742 C20.0249767,3.77040234 16.2006651,0 11.5,0 C6.79933488,0 2.97502326,3.77040234 2.97502326,8.40485742 C2.97502326,10.7396719 4.30816744,14.0362031 6.93733488,18.2029043 C7.22740233,18.6626426 7.51677442,19.1065605 7.79935349,19.5294902 C5.95833721,19.7176992 4.29934186,20.0461816 3.02621163,20.4806074 C1.04088372,21.1579277 0.0342325581,22.0640098 0.0342325581,23.173541 C0.0342325581,24.4169648 1.28944419,25.3998809 3.76493953,26.0951836 C5.84253488,26.6786895 8.5895907,27 11.5,27 C14.4104093,27 17.1574651,26.6786367 19.235114,26.0951309 C21.7106093,25.3998809 22.9657674,24.4169121 22.9657674,23.1734883 C22.9657674,22.0640098 21.9592233,21.1579277 19.9738419,20.4806074 Z M4.69488837,8.40485742 C4.69488837,4.70533008 7.74763023,1.69562109 11.5,1.69562109 C15.2523698,1.69562109 18.3051116,4.70533008 18.3051116,8.40485742 C18.3051116,10.387248 17.0277558,13.4608184 14.6112047,17.2931836 C13.4218372,19.179334 12.2208628,20.8236445 11.4999465,21.7760273 C10.7790837,20.8236973 9.5781093,19.1793867 8.38868837,17.2931836 C5.97224419,13.4608184 4.69488837,10.3873008 4.69488837,8.40485742 Z M18.7638814,24.464373 C16.8351442,25.0060605 14.2554535,25.3043789 11.5,25.3043789 C8.74454651,25.3043789 6.16480233,25.0060605 4.2361186,24.464373 C2.18553488,23.8884609 1.75404419,23.2712051 1.75404419,23.173541 C1.75404419,23.0813613 2.08048372,22.5975234 3.58864186,22.0829941 C4.94815581,21.6191953 6.82217442,21.2860723 8.9060814,21.1348828 C9.97825581,22.6433496 10.7752326,23.6370762 10.8262605,23.7004629 C10.9894,23.9032266 11.2375326,24.0214043 11.5,24.0214043 C11.7624674,24.0214043 12.0105465,23.9032266 12.1737395,23.7004629 C12.2247674,23.6370234 13.0217442,22.6433496 14.0939186,21.1348828 C16.1778791,21.2860723 18.0518977,21.6191426 19.4114116,22.0829941 C20.9195163,22.5975762 21.2459558,23.0813613 21.2459558,23.1734883 C21.2459558,23.2712051 20.8144651,23.8884609 18.7638814,24.464373 Z" id="Shape"></path>
                <path d="M11.5,4.47667383 C9.3030186,4.47667383 7.51565116,6.23889844 7.51565116,8.40485742 C7.51565116,10.5708164 9.30307209,12.333041 11.5,12.333041 C13.6969279,12.333041 15.4843488,10.5708164 15.4843488,8.40485742 C15.4843488,6.23889844 13.6969814,4.47667383 11.5,4.47667383 Z M11.5,10.6374727 C10.2513674,10.6374727 9.23551628,9.63594141 9.23551628,8.40491016 C9.23551628,7.17382617 10.2513674,6.17234766 11.5,6.17234766 C12.7486326,6.17234766 13.7644837,7.17387891 13.7644837,8.40491016 C13.7644837,9.63594141 12.7486326,10.6374727 11.5,10.6374727 Z" id="Shape"></path>
            </g>
        </g>
    </g>
</svg>