
<svg width="23px" height="23px" viewBox="0 0 23 23" version="1.1" xmlns="http://www.w3.org/2000/svg" xmlns:xlink="http://www.w3.org/1999/xlink">
    <!-- Generator: Sketch 61.2 (89653) - https://sketch.com -->
    <title>001-facebook-Hover</title>
    <desc>Created with Sketch.</desc>
    <g id="Homepage" stroke="none" stroke-width="1" fill="none" fill-rule="evenodd">
        <g id="Launchpad-1-" transform="translate(-985.000000, -3077.000000)" fill="#8FBBE2" fill-rule="nonzero">
            <g id="001-facebook-Hover" transform="translate(985.000000, 3077.000000)">
                <path d="M11.5,0 C5.15892613,0 0,5.15892613 0,11.5 C0,17.8406107 5.15892613,23 11.5,23 C17.8406107,23 23,17.8406107 23,11.5 C23,5.15892613 17.8415371,0 11.5,0 Z M14.3599452,11.9048578 L12.4889833,11.9048578 L12.4889833,18.5734311 L9.71658745,18.5734311 C9.71658745,18.5734311 9.71658745,14.9297108 9.71658745,11.9048578 L8.39871506,11.9048578 L8.39871506,9.5479739 L9.71658745,9.5479739 L9.71658745,8.02350358 C9.71658745,6.93168452 10.2353984,5.22563039 12.5144606,5.22563039 L14.5688593,5.2335052 L14.5688593,7.52136873 C14.5688593,7.52136873 13.3204705,7.52136873 13.0777411,7.52136873 C12.8350117,7.52136873 12.4899098,7.64273342 12.4899098,8.16339724 L12.4899098,9.54843712 L14.6022114,9.54843712 L14.3599452,11.9048578 Z" id="Shape"></path>
            </g>
        </g>
    </g>
</svg>